# xmcd CD database file
#
# Track frame offsets:
#	150
#	16542
#	34195
#	48507
#	65997
#	81315
#	99215
#	116400
#	131737
#	152647
#	168102
#	183692
#	200060
#	215257
#
# Disc length: 3085 seconds
#
# Revision: 3
# Processed by: cddbd v1.5.2PL0 Copyright (c) Steve Scherf et al.
# Submitted via: CDex 1.70beta2
#
DISCID=bd0c0b0e
DTITLE=Kastelruther Spatzen - Carmen Nebel präsentiert - Kastelruther Spatzen
DYEAR=2000
DGENRE=Folk
TTITLE0=Feuer im ewigen Eis
TTITLE1=Ich schwör
TTITLE2=Herzschlag für Herzschlag
TTITLE3=Die weisse Braut der Berge
TTITLE4=Sieben rote Rosen
TTITLE5=Ein Kind der Liebe
TTITLE6=Atlantis der Berge
TTITLE7=Das Lied der Dornenvögel
TTITLE8=Rosanna
TTITLE9=Der rote Diamant
TTITLE10=Bella Rosa
TTITLE11=Doch die Sehnsucht bleibt
TTITLE12=Das Mädchen mit den erloschenen Augen
TTITLE13=Das erste gebot ist die Liebe
EXTD=YEAR: 2000
EXTT0=
EXTT1=
EXTT2=
EXTT3=
EXTT4=
EXTT5=
EXTT6=
EXTT7=
EXTT8=
EXTT9=
EXTT10=
EXTT11=
EXTT12=
EXTT13=
PLAYORDER=
